<svg version="1.2" xmlns="http://www.w3.org/2000/svg" viewBox="0 0 500 500" width="64" height="64"><style>.a{fill:#f00}.b{fill:#333}</style><path class="a" d="m28.8 112.3l-0.1 74.2q17.1-9 32.8-18.3 16-9.4 31.8-18.4 17.5 9.4 34.7 19.2 17.5 9.5 35 19.8l22.5 13.4v105.8q-5.8 3.5-11.5 6.8-5.5 3.2-11.8 6.7-16.9 9.5-34.2 19.5-17 10-34 20.3-23.2-13.5-46.3-26.5-22.7-13.3-46-26.8v-108.8q0-26 0.3-52 0.2-26.2-0.3-50v-0.7q14.5 8 27.1 15.7zm65.2 68.3q-16.5 9-32.8 18.5-16 9.5-32.5 19v74.3q16.5 9.5 32.5 18.7 16.3 9.3 32 18.8 16.5-9 32.5-18.5 16.3-9.5 32.8-19v-74.3q-16.5-9.5-32.3-18.7-15.7-9.3-32.2-18.8z"/><path class="b" d="m122.1 37v73.5q16.5 9.5 32.5 19 16.3 9.5 32.8 18.5 15.7-9 31.7-18.3 16.3-9.4 32.8-18.4 15.7 8.9 31.7 18.4 16.3 9.3 32 18.3 16.5-9 32.5-18.3 16.3-9.4 32.8-18.4v-65.3q0-2.3-0.3-5-0.2-2.8 0.3-4 0-1.3 2.5-2.3 2.5-1 4.2-2.2 5-2.8 9.8-5.8 4.7-3.2 10.5-5.5v105q-23.3 13.5-46 27-22.8 13.3-45.5 26.3-16.5-9-32.8-18.3-16-9.5-31.7-18.5-16.5 9-32.3 18.5-15.7 9.3-32.2 18.3-23.3-13-46.3-26.3-22.7-13.5-46-27v-105q6.8 3.5 13.8 7.5 7 3.8 13.2 8.3z"/><path class="b" d="m122.1 463v-73.5q16.5-9.5 32.5-19 16.3-9.5 32.8-18.5 15.7 9 31.7 18.3 16.3 9.4 32.8 18.4 15.7-8.9 31.7-18.4 16.3-9.3 32-18.3 16.5 9 32.5 18.3 16.3 9.4 32.8 18.4v65.3q0 2.3-0.3 5-0.2 2.8 0.3 4 0 1.3 2.5 2.3 2.5 1 4.2 2.2 5 2.8 9.8 5.8 4.7 3.2 10.5 5.5v-105q-23.3-13.5-46-27-22.8-13.3-45.5-26.3-16.5 9-32.8 18.3-16 9.5-31.7 18.5-16.5-9-32.3-18.5-15.7-9.3-32.2-18.3-23.3 13-46.3 26.3-22.7 13.5-46 27v105q6.8-3.5 13.8-7.5 7-3.8 13.2-8.3z"/><path class="a" d="m472.1 186.8v-74.3q12.3-7.8 27-15.8v0.8q-0.5 23.7-0.2 50 0.2 26 0.2 52v108.7q-23.2 13.5-46.2 26.8-22.8 13-46 26.5-17-10.3-34.3-20.3-17-10-34-19.5-6.2-3.5-12-6.7-5.5-3.3-11.2-6.8v-105.7l22.5-13.5q17.5-10.3 34.7-19.8 17.5-9.7 35-19.2 15.8 9 31.5 18.5 16 9.2 33 18.2zm-65.2-6q-16.5 9.5-32.3 18.8-15.7 9.2-32.2 18.7v74.3q16.5 9.5 32.5 19 16.2 9.5 32.7 18.5 15.8-9.5 31.8-18.8 16.2-9.2 32.7-18.7v-74.3q-16.5-9.5-32.7-19-16-9.5-32.5-18.5z"/></svg>