<svg version="1.2" xmlns="http://www.w3.org/2000/svg" viewBox="0 0 1150 1150" width="150" height="150"><style>.a{fill:#ededed}</style><path class="a" d="m1013.3 682.1c-42.1 100.9-141.6 171.9-257.8 171.9-78.1 0-148.6-32.1-199.3-83.7-37.6-4-70.6-9.7-96.8-15 59.9 94.8 165.7 157.7 286.1 157.7 168.3 0 307.9-122.9 333.9-283.9-17.2 16.5-41.4 37.6-66.1 53z"/><path class="a" d="m1051 486.1c-5.3-19.6-12.3-38.5-20.9-56.5q0 0 0 0 0 0 0 0c-54.3-114.2-170.7-193.1-305.6-193.1-186.8 0-338.3 151.5-338.3 338.3q0 0.3 0 0.6c-91.8 6.9-196.4 4.3-314.7-12.8 0 0 461.6 142.8 817.2-107.2-11-13-23.1-25.1-36.3-36-75.9 54.7-204.7 122.8-397 148.8 3.5-151.2 127.1-272.6 279.1-272.6 116.3 0 216 71.1 257.9 172.3-89.4 79.9-344.4 251.9-829.4 182 0 0 486.8 150.6 845.6-128.2q0 0 0 0 3.3-2.6 6.8-5.4 18.1-14.3 35.6-30.2 0 0 0 0z"/></svg>